<?xml version="1.0" encoding="UTF-8"?>
<svg id="Capa_1" data-name="Capa 1" xmlns="http://www.w3.org/2000/svg" viewBox="0 0 37.44 31.19">
  <defs>
    <style>
      .cls-1 {
        fill: none;
        stroke: #000;
        stroke-linecap: round;
        stroke-linejoin: round;
      }
    </style>
  </defs>
  <polyline class="cls-1" points="2.47 8.68 3.85 7.89 1.52 10.72 8.35 6.77 1.11 12.31 13.61 5.09 .84 14.03 19.92 3.01 .79 16.09 27.82 .49 1.15 18.09 30.87 .93 1.59 19.24 31.93 1.72 2.03 20.18 32.62 2.52 2.53 21.12 33.21 3.41 3.39 22.49 33.93 4.86 4.33 23.73 34.53 6.29 5.65 25.15 35.29 8.04 6.94 26.23 35.89 9.51 8.46 27.06 36.36 10.95 10.13 27.86 36.73 12.51 11.95 28.44 36.88 14.05 14.59 29.07 36.92 16.18 16.92 29.69 36.88 18.16 19.23 30.11 36.76 19.99 21.29 30.31 36.65 21.44 24.39 30.41 36.53 23.4 28.45 30.18 35.76 25.96"/>
</svg>