<svg width="112" height="88" viewBox="0 0 112 88" fill="none" xmlns="http://www.w3.org/2000/svg">
<path d="M33.5443 88C29.5893 88 26.8062 87.3802 25.0777 85.9339C23.8472 84.8714 23.1734 83.4251 23.1734 81.8017C23.1734 79.7357 23.9644 77.8762 25.4878 76.3709C25.6343 76.2233 25.7808 76.1053 25.898 75.9872C18.2516 76.489 13.0076 75.8691 10.2244 73.5079C8.73032 72.2387 7.96861 70.5563 7.96861 68.6083C7.96861 67.1325 8.46665 65.7453 9.37484 64.5647C7.20691 64.0039 5.41983 63.207 4.07219 62.0559C2.13863 60.4325 1.14256 58.2484 1.14256 55.7101C1.14256 53.4079 2.05075 51.3713 3.74993 49.7479C4.0136 49.5118 4.27727 49.2757 4.57023 49.0691C3.66205 48.6854 2.90034 48.2426 2.28512 47.6818C0.791002 46.4127 0 44.7008 0 42.7232C0 40.7457 0.791002 38.8567 2.31441 37.3809C3.28119 36.466 4.51164 35.6986 6.03505 35.0492C5.88857 34.9607 5.77138 34.8426 5.6542 34.7246C4.10149 33.3964 3.28119 31.6254 3.28119 29.6184C3.28119 27.6113 4.07219 25.7814 5.56631 24.3351C9.93147 20.1439 20.1266 19.3175 35.9466 19.6421C35.5658 18.8747 35.3607 17.9893 35.3607 17.0743C35.3607 9.75446 47.8117 8.78045 65.0379 7.45225C66.9715 7.30467 69.2273 7.12758 71.571 6.92097C70.9265 6.24211 70.5749 5.32713 70.5749 4.35312C70.5749 2.58219 72.0105 1.13594 73.7682 1.13594C74.53 1.13594 75.2331 1.40158 75.7897 1.84431C77.0787 1.78528 79.5689 1.34254 81.3267 1.01787C87.6254 -0.103714 91.2875 -0.634993 93.4847 1.22448C94.4222 2.0214 94.9202 3.11347 94.9202 4.35312C94.9202 8.48529 90.8773 10.5809 84.1978 11.8501C93.3675 10.5809 99.1682 10.5514 102.039 13.0012C103.27 14.0342 103.914 15.4805 103.914 17.0743C103.914 19.0518 103.182 20.8523 101.776 22.2985C103.885 22.7708 105.555 23.5087 106.785 24.5417C108.309 25.8404 109.129 27.5818 109.129 29.5889C109.129 31.714 108.279 33.6325 106.697 35.1673C106.58 35.2558 106.492 35.3739 106.375 35.4624C107.606 35.9347 108.66 36.4955 109.481 37.2334C111.121 38.6501 112 40.5391 112 42.6937C112 45.114 111.063 47.2981 109.246 48.9805C108.953 49.2462 108.66 49.5118 108.338 49.7479C108.807 50.0136 109.246 50.3087 109.627 50.6334C111.15 51.9321 111.971 53.6735 111.971 55.6805C111.971 58.0713 111.033 60.2554 109.246 61.9673C108.953 62.2625 108.602 62.5281 108.25 62.7938C108.338 62.8528 108.426 62.9413 108.543 63.0299C110.213 64.4466 111.092 66.3652 111.092 68.5493C111.092 70.4088 110.359 72.0911 108.982 73.4489C107.635 74.7771 105.643 75.7511 103.035 76.4594L103.123 76.548C104.705 77.8762 105.526 79.6766 105.526 81.7427C105.526 83.5136 104.09 84.9599 102.332 84.9599C100.574 84.9599 99.1389 83.5136 99.1389 81.7427C99.1389 81.5656 99.1389 81.5656 99.0217 81.4771C95.2718 78.2894 74.735 81.8903 61.1708 84.281C48.8956 86.4357 39.8138 87.941 33.5736 87.941L33.5443 88ZM29.7065 81.2705C33.6615 82.6282 49.423 79.8537 60.0283 77.9942C60.5263 77.9057 61.0243 77.8172 61.5224 77.7286C47.8117 77.4334 33.3979 77.581 29.9409 80.9753C29.853 81.0639 29.7651 81.1524 29.7065 81.241V81.2705ZM58.6806 71.2647C61.8153 71.2942 65.1551 71.3828 68.7293 71.4713C83.1431 71.855 101.072 72.2978 104.529 68.9035C104.705 68.7264 104.705 68.6674 104.705 68.6083C104.705 68.3132 104.647 68.1951 104.412 68.018C103.387 67.1326 101.336 66.6898 98.5823 66.5127C93.8363 67.3687 87.9184 67.7229 80.9166 67.7229C73.6218 68.6969 65.6824 70.0546 58.6806 71.2647ZM31.6694 66.129C22.7926 66.129 15.4099 66.6898 14.3259 68.6674C16.5524 71.3828 33.7201 68.9625 48.0167 66.5718C42.7434 66.3356 36.9427 66.129 31.6694 66.129ZM56.7764 60.5506C64.4813 60.9343 72.8015 61.318 80.3892 61.318C87.5082 60.3735 93.3968 59.9013 98.0842 60.1079C101.19 59.488 103.533 58.6321 104.822 57.3629C105.496 56.7136 105.584 56.1823 105.584 55.7396C103.006 52.1092 76.9908 56.8612 61.4638 59.6946C59.8818 59.9898 58.3291 60.2554 56.8056 60.5506H56.7764ZM26.7476 51.4008C17.7829 51.4008 10.6053 52.1387 8.0858 54.4999C7.61705 54.9427 7.49987 55.3264 7.49987 55.7396C7.49987 56.3889 7.67565 56.7726 8.14439 57.1563C13.7107 61.8493 40.6341 56.9497 60.2919 53.3488C60.6435 53.2898 60.9657 53.2308 61.3173 53.1717C59.3837 53.0537 57.4209 52.9061 55.3994 52.788C46.0539 52.1387 35.5658 51.4303 26.7476 51.4303V51.4008ZM51.8253 46.088C53.1436 46.1766 54.4619 46.2651 55.8389 46.3537C75.321 47.6819 99.549 49.3642 104.881 44.3761C105.408 43.9039 105.613 43.4316 105.613 42.7823C105.613 42.5462 105.613 42.4576 105.35 42.2215C100.545 38.0893 73.9733 42.4576 54.5791 45.6158C53.6709 45.7633 52.7627 45.9109 51.8546 46.0585L51.8253 46.088ZM28.4761 38.8862C17.988 38.8862 9.28695 39.5946 6.70887 42.0739C6.35731 42.3986 6.35731 42.6052 6.35731 42.7528C8.99398 46.4127 34.9213 42.31 51.6788 39.5651C44.0617 39.2109 35.8295 38.8567 28.4761 38.8567V38.8862ZM54.667 33.2783C73.9147 34.1638 97.4983 35.1968 102.274 30.5924C102.684 30.1792 102.742 29.9135 102.742 29.6774C100.252 25.7518 72.1276 30.3858 57.0107 32.8946C56.2197 33.0127 55.458 33.1602 54.667 33.2783ZM29.9995 26.0765C20.361 26.0765 12.3631 26.7554 9.99006 29.0576C9.6678 29.3527 9.6678 29.5298 9.6678 29.6774C11.8064 33.6915 38.3489 29.4708 54.0811 26.8734C53.7002 26.8734 53.2901 26.8439 52.9092 26.8144C45.4973 26.4602 37.265 26.0765 29.9995 26.0765ZM68.8172 20.9999C81.8833 21.354 93.9827 20.9999 97.1467 17.9598C97.2053 17.9007 97.2639 17.8417 97.3225 17.7827C93.5726 16.7201 80.3599 19.0223 71.4245 20.5571C70.5456 20.7047 69.6668 20.8523 68.8172 20.9999ZM42.5969 17.1333C47.1379 18.2549 61.4345 15.7461 70.3406 14.2113C73.446 13.68 76.317 13.1783 78.983 12.7355C75.028 13.2078 70.4871 13.562 65.536 13.9457C58.2119 14.5064 46.4933 15.4214 42.6262 17.1333H42.5969Z" fill="black"/>
</svg>
