<svg width="118" height="98" viewBox="0 0 118 98" fill="none" xmlns="http://www.w3.org/2000/svg">
<path d="M7.59773 24.6659C4.27529 27.0507 2.25576 33.421 1.40887 37.3085C-0.252357 44.8549 -0.93639 52.8913 2.15804 60.1764C4.99189 66.8734 8.86808 73.4724 13.982 78.6994C15.4152 80.2021 16.881 81.7375 18.3468 83.2076C21.1155 84.8737 23.9494 86.4091 26.8484 87.8792C33.819 91.7014 41.4085 92.2567 48.9654 94.5762C56.4898 96.863 63.8513 97.647 71.7665 97.8103C77.2062 97.9084 82.9716 98.3004 88.3462 97.549C97.0106 96.3076 105.414 92.9428 111.603 86.6051C116.261 81.8682 116.62 78.242 116.913 71.7737C117.206 65.5993 118.02 59.5884 117.988 53.3487C117.988 47.4357 118.216 42.0455 116.717 36.2631C115.545 31.6242 113.916 27.4754 111.962 23.1958C108.835 16.3354 106.815 8.72371 101.05 3.43144C97.9226 0.556623 94.535 -0.0314077 90.3331 0.00126068C86.3592 0.00126068 81.7664 0.197271 78.1834 2.05937C72.2551 5.13019 66.1965 7.12296 59.9099 9.11574C42.1902 14.702 25.2849 21.497 7.63031 24.7312L7.59773 24.6659Z" fill="black"/>
</svg>
