<svg width="100" height="128" viewBox="0 0 100 128" fill="none" xmlns="http://www.w3.org/2000/svg">
<path d="M24.4946 62.3813C23.7231 66.7191 19.7829 70.6749 17.7164 74.4944C15.9529 77.7136 14.217 80.6055 12.0954 83.5519C8.54097 88.4353 5.7856 93.2642 3.66396 98.8842C3.03023 100.576 3.00267 102.322 2.58937 104.068C2.0934 106.114 1.04636 107.996 0.467733 110.015C-0.22111 112.361 0.0544271 114.899 0.0544271 117.354C0.0544271 121.583 0.0544274 124.665 4.54568 126.93C7.9899 128.676 11.4066 127.939 14.8783 127.148C19.7278 126.057 24.1364 123.902 28.7378 122.101C31.1075 121.173 34.1384 121.037 36.7009 120.546C43.2587 119.318 49.5409 119.073 56.2364 118.964C62.3258 118.854 66.4589 123.574 72.1074 125.156C78.555 126.984 84.9474 126.903 91.6154 127.012C93.682 127.039 96.0791 126.357 97.0986 124.365C97.2639 124.065 97.0435 122.892 97.1813 122.51C97.3466 122.019 98.0079 121.61 98.2834 121.173C99.0274 119.918 99.6335 119.018 99.7989 117.572C100.267 113.153 100.047 108.651 97.7323 104.941C96.3822 102.758 94.5912 100.876 93.2962 98.6114C92.0012 96.347 90.0449 94.6555 89.0529 92.3912C88.3916 90.8907 87.8957 89.7448 87.0966 88.2989C85.0852 84.6977 86.766 80.0598 86.27 76.1858C86.0771 74.6853 85.3883 73.4576 85.2781 71.9026C85.1954 70.4294 85.3056 68.9289 85.3056 67.4557C85.3056 63.9636 85.6638 60.3079 84.8648 56.8977C84.0657 53.5966 84.975 50.3773 84.4514 47.0762C84.0381 44.4299 82.6053 41.6199 81.9165 39.0554C81.5308 37.5822 81.393 36.3545 80.7868 34.9632C80.0429 33.2171 80.2357 32.1259 79.7398 30.3253C79.2989 28.7429 78.4172 27.4334 78.059 25.7692C77.7008 24.0232 77.2324 22.7137 76.4884 21.0768C75.2761 18.485 74.6148 15.7841 73.2095 13.3833C71.9421 11.2008 71.143 8.63632 69.9306 6.39922C69.352 5.30795 68.8836 4.1894 68.3325 3.07085C68.057 2.52522 67.2304 0.888318 66.8446 0.615501C64.3923 -1.18509 60.0113 1.35211 58.854 3.26183C57.4488 5.55349 55.9885 7.79059 54.5006 10.055C52.7922 12.674 51.9932 15.5386 50.891 18.4305C50.0093 20.7221 49.3756 23.1775 48.1081 25.2782C46.8957 27.2424 45.215 28.8793 44.6363 31.0892C43.8097 34.2811 42.8729 37.2821 41.4401 40.3104C39.098 45.2211 36.6733 51.1685 32.5403 54.9607C30.7217 56.6248 28.6552 58.0708 26.8917 59.6804C25.7345 60.7171 22.3729 62.7632 24.6323 62.3813H24.4946Z" fill="black"/>
</svg>
